<svg xmlns="http://www.w3.org/2000/svg" viewBox="0 0 36 36">
  <!-- A lotus medallion seal — trust and good faith, not a generic shield glyph -->
  <circle cx="18" cy="18" r="14.6" fill="none" stroke="#D98A2B" stroke-width="1.3"/>
  <circle cx="18" cy="18" r="11.4" fill="#F5E6C8"/>
  <g fill="#D98A2B">
    <path d="M18 8.6c1.8 2.7 1.8 5.7 0 7.4-1.8-1.7-1.8-4.7 0-7.4Z"/>
    <path d="M18 8.6c1.8 2.7 1.8 5.7 0 7.4-1.8-1.7-1.8-4.7 0-7.4Z" transform="rotate(60 18 18)"/>
    <path d="M18 8.6c1.8 2.7 1.8 5.7 0 7.4-1.8-1.7-1.8-4.7 0-7.4Z" transform="rotate(120 18 18)"/>
    <path d="M18 8.6c1.8 2.7 1.8 5.7 0 7.4-1.8-1.7-1.8-4.7 0-7.4Z" transform="rotate(180 18 18)"/>
    <path d="M18 8.6c1.8 2.7 1.8 5.7 0 7.4-1.8-1.7-1.8-4.7 0-7.4Z" transform="rotate(240 18 18)"/>
    <path d="M18 8.6c1.8 2.7 1.8 5.7 0 7.4-1.8-1.7-1.8-4.7 0-7.4Z" transform="rotate(300 18 18)"/>
  </g>
  <circle cx="18" cy="18" r="2.7" fill="#B86F1C"/>
  <circle cx="18" cy="18" r="1.1" fill="#FFCD00"/>
</svg>
