<?xml version="1.0" encoding="UTF-8" standalone="no"?>
<svg
   xmlns="http://www.w3.org/2000/svg"
   viewBox="0 0 381.07504 800.61719"
   width="381.07504"
   height="800.61719">
  <g fill="#000000" stroke="none">
  <path d="m 62.338471,33.343229 1.76,0.42 1.04,1 1.11,0.33 0.23,0.67 1.03,0.14 0.38,1.17 -0.86,0.35 -0.11,1.07 1.83,2.05 -0.25,0.96 0.44,0.4 0.03,0.33 0.87,0.68 0.36,0.93 1,0.22 -0.03,0.55 0.93,0.63 0.31,-0.04 0,0 0.27,0.54 1.07,-0.08 0.9,0.44 -0.27,0.59 0.74,1.97 0.61,0.27 -0.7,1.96 -0.7,0.44 -0.62,0.89 0.88,1.2 0.82,0.68 0.12,0.45 0.73,0.22 0.08,0.9 1.23,0.69 0.87,-0.42 2.57,-0.25 0.33,0.14 1.37,-0.53 1.02,0.43 0.93,0.92 0.07,2 0.67,0.34 -0.1,0.39 0.22,0.2 -0.65,0.36 0.12,0.44 -0.52,0.7 0.58,0.18 0.07,0.39 0.89,0.21 1.84,1.73 0.06,0.43 0.61,0.72 0.09,1.22 0.48,0.32 0.31,0.75 0.76,0.39 0,0.54 -0.33,0.34 0.15,0.31 1.18,0.37 1.18,1.44 1.31,0.34 -0.12,1 0.43,0.79 -0.34,1.39 0.75,1.04 0.21,0.75 -0.18,1.31 0.63,0.75 -0.43,0.7 1.4,1.8 0,0 -0.75,0.42 -0.47,0.75 -0.07,0.57 -0.91,0.99 -0.73,-0.31 -0.49,-0.5 -0.68,0.6 -0.66,0.03 -0.4,0.77 0.16,2.32 1.57,1.51 -0.07,0.53 1.38,1.03 0.43,0.7 -0.05,0.51 0.86,1.05 -0.24,0.75 -0.61,0.11 0.12,0.72 -0.27,-0.15 -0.56,0.26 -0.31,-0.2 -0.87,0.15 0.15,0.67 -0.37,0.68 0.53,0.39 0.11,0.53 0,0 -0.89,0.33 -0.81,-0.39 -0.44,-0.42 -0.15,1.27 -1.32,-0.28 -0.27,-0.51 -0.52,-0.29 -0.24,-2.08 -0.37,0.46 -0.71,-0.3 -0.31,0.17 -0.91,-1.43 -0.36,0 -0.22,-0.87 -1.23,0.01 -0.08,-0.47 0.31,-1.17 -1.47,-0.13 -0.34,0.24 -0.68,-0.82 -0.79,-0.25 -0.01,-0.7 0.47,-0.21 0.89,-2.04 -0.34,-0.08 -0.05,-0.27 -0.49,0 0.04,-1.03 -1.17,-0.99 0.28,-1.03 -1.22,-0.59 -0.28,-1.47 -0.44,-0.69 -1.14,-0.04 -0.91,-0.68 -0.29,-0.56 -2.7,-0.59 -0.53,-0.38 -1,0.28 -0.67,0.76 0.09,1.01 -0.23,0.44 -0.47,0.26 -0.2,0.54 0,0 -1.21,-0.6 -0.4,-0.85 -0.66,-0.72 0.05,-0.35 0,0 0.73,-0.61 0,0 -0.72,-1.54 -0.49,-0.23 -0.43,0.17 -0.25,-0.58 -0.46,-0.38 -0.85,-3.15 -0.73,-0.77 0.01,-0.72 -0.19,-0.12 -2.92,0.17 -0.67,0.56 -0.14,0.57 -0.53,0.44 0.07,0.64 -1.08,0.32 -0.15,1.24 -0.55,0.65 0.1,0.46 0.83,0.98 -0.03,0.38 -0.39,0.24 -2.07,-0.59 -1.6,-1.13 -0.79,0.09 -1.38,-0.64 -0.99,0.21 -0.08,0.32 -0.28,0.07 -0.92,-0.82 -0.25,-0.69 -0.99,-0.4 -0.71,1.72 0.34,0.26 -0.05,0.48 -1.64,-0.32 -0.94,0.77 -0.49,-0.02 -0.68,-0.39 -0.57,0.32 -0.53,-0.1 -0.23,0.85 -0.51,0.59 -0.96,-0.26 -0.3,-0.36 0.14,-0.23 -0.21,-0.47 -0.86,-0.88 -0.72,-0.19 -0.08,-0.42 0.38,-0.52 -0.11,-0.53 -1.12,0.27 -1.26,0.88 -0.54,-0.32 -0.55,0.14 -0.38,1 -0.47,-0.35 -1.61,0.04 -0.53,-0.47 -1.72,-0.72 -0.1,-0.19 0.28,-0.56 -0.64,-0.88 -0.24,0.04 -0.93,-0.79 -0.31,-0.81 0.17,-0.42 -0.16,-1 0.48,-0.4 0.34,-1.73 -1.43,-1.69 -0.92,-0.04 -0.87,-0.42 -0.8,-0.87 -0.7,0.49 1.27,0.93 0.53,1.58 -0.09,0.56 -0.34,0.29 -0.61,1.42 -1.21,-0.46 0,0 -0.55,0.05 0,0 -0.39,-0.67 -0.42,-0.13 -0.49,-0.53 0.01,-2 -0.8,-0.29 -1.36,-1.16 -0.8,0.05 -0.51,0.91 -0.53,0.05 -0.96,-0.56 -0.52,-0.43 -0.29,-1.06 -0.94,-0.99 -0.91,-1.7 -0.89,-0.83 0.05,-0.41 -0.42,-0.61 -1.17,-0.56 -0.21,-0.82 -0.64,-0.15 -1.22,-1.24 0.27,-0.75 0.33,0.27 -0.08,-0.79 -0.28,-0.46 0.12,-1.06 -0.35,-0.45 -1.22,-0.4 -0.23,-0.82 -0.55,-0.04 0.01,-0.83 -0.47,-0.82 0.19,-0.48 -0.65,-0.36 -0.4,-0.55 -0.04,-0.77 0,0 1.44,-0.47 -0.44,-1.24 1.36,-0.31 1.51,-2.09 0.88,-0.26 -0.15,-0.35 -0.63,-0.11 -0.85,-1.49 -0.07,-0.74 0.57,-0.31 0.75,0.29 1.36,-0.94 0.44,-1.29 0.65,-0.44 -0.29,-0.56 0.05,-0.58 0.32,-0.52 0.48,-0.44 0.53,0 0.2,-0.52 0.93,-0.04 0.59,0.16 1.42,1.2 0.69,1.18 0.62,0.5 0.28,1.18 0.81,-0.14 0.18,-0.92 0.63,-0.53 0.32,-0.01 2.55,2.39 1.62,-0.66 1.03,0.45 0.2,0.74 0.73,0.1 0.61,0.69 0.79,-0.05 0.71,1.13 0.92,0.66 0.3,0.52 1.47,0.22 0.45,-0.26 1.03,0.41 0.92,0.47 0.13,0.51 0.73,0.63 -0.32,0.8 0.54,0.45 0.69,1.3 0.66,1.15 0.13,0.8 0.53,0.16 0.94,1.24 0.52,0.19 0.78,0.23 1.19,-0.07 0.47,0.99 1.75,0.98 1.2,-0.15 0.99,-0.03 0.41,-0.28 -0.07,-0.96 -0.41,-0.4 0.05,-0.78 0.4,-0.91 0.95,-0.51 1.06,-0.15 1.07,-1.23 0.49,-0.14 0.41,0.26 1.31,-0.99 -1.23,-2.02 0.6,-1.52 0.34,-0.56 0.37,-0.56 0.55,-0.54 0.73,0.23 1,-0.09 0.58,-1.01 0.69,-0.41 0.54,0.14 0.92,-0.48 0.1,-1.19 0.35,-0.58 -0.17,-1.4 1.22,-1.51 0.47,-1.07 0.13,-2.04 0.92,0.61 z" />
  <path d="m 109.74847,31.493229 0.39,-0.28 0.65,0.37 -0.2,1 -0.6,2.41 0.14,0.64 0.56,0.75 0.06,0.66 0.46,0.01 1.2,0.67 1,-0.11 0.84,0.52 0.26,0.66 0,0 -0.3,1.15 1.31,0.87 1.89,-0.35 0.61,0.85 0.02,0.64 0.65,1.25 0.72,0.61 1.37,0.39 0.13,2.19 -0.47,0.19 -0.68,-0.3 -0.87,0.1 -0.21,1.71 -0.39,0.77 0.99,0.42 0.52,1.04 1.56,1.03 -0.46,0.84 -0.84,0.61 0.27,0.82 0.77,1.14 1.15,0.24 0.4,0.87 0.51,-0.03 2.1,1.26 0.34,0.52 -0.34,0.7 0.35,0.36 0.8,-0.07 0.59,0.36 -0.83,0.95 0.71,0.87 0.01,0.72 -1.03,1.06 -0.7,0.25 -0.13,0.34 0.45,1.55 0.56,0.2 0.61,-0.14 0.24,-0.39 0.38,0.12 0,0 -0.17,1.01 0.39,0.67 0.31,0.09 0.86,-0.43 0.76,0.35 -0.64,0.41 -0.06,0.45 0.58,1.77 -0.39,-0.34 -0.8,0.17 -0.21,-0.43 -0.47,0.02 -0.35,0.31 0,0.55 0.29,0.4 -0.43,0.28 0.23,0.62 -0.24,0.26 -0.1,0.98 0.22,0.49 -0.42,0.15 -0.15,0.66 -0.5,0.67 -0.67,-0.32 -0.21,-0.45 -0.92,-0.57 -0.61,-0.88 0,0 -0.58,-0.33 0,0 -1.03,-0.71 -0.67,-0.96 -0.69,-0.32 -0.29,-1.01 -0.69,0.01 -0.8,-0.76 -0.43,-0.06 -0.61,0.51 0.09,0.23 -0.34,0.15 -0.17,0.41 -0.64,0.07 0.4,0.89 0.39,0.16 0.13,0.53 -0.2,0.66 0.42,1.05 -0.26,-0.12 -0.54,0.84 -0.05,0.48 -0.54,0.22 0,1.11 -0.2,0.15 0.49,0.22 0.39,0.91 0.26,0.03 0.89,1.11 0.38,2.04 0.41,0.97 -0.16,1.04 0.27,0.55 -0.27,0.58 -2.07,1.3 -0.09,0.7 -1.64,1.35 -0.76,-0.58 -0.08,-0.4 -0.39,-0.34 -0.24,-1.09 -1.68,-0.51 -0.49,-0.7 -0.51,0.34 -0.94,0.12 -1.72,-0.91 -0.57,-0.05 -0.12,0.48 1.11,0.96 -0.18,0.74 0.18,0.42 -0.91,0.61 -0.95,0.22 -2.86,-0.49 -0.68,-0.58 -1.74,-0.53 -0.87,0.66 -1.819999,-0.69 -0.3,0.16 -1.35,-0.24 -0.68,-0.49 -0.35,-0.6 0.31,-0.42 -0.03,-0.51 -0.54,-0.69 0,0 -1.4,-1.8 0.44,-0.7 -0.63,-0.75 0.18,-1.31 -0.2,-0.75 -0.76,-1.05 0.34,-1.39 -0.43,-0.79 0.12,-1 -1.31,-0.34 -1.18,-1.44 -1.18,-0.37 -0.14,-0.31 0.33,-0.34 0,-0.53 -0.76,-0.39 -0.3,-0.76 -0.49,-0.32 -0.09,-1.22 -0.61,-0.72 -0.07,-0.43 -1.84,-1.73 -0.89,-0.21 -0.07,-0.39 -0.58,-0.19 0.53,-0.7 -0.12,-0.44 0.65,-0.36 -0.22,-0.2 0.1,-0.39 -0.67,-0.34 -0.07,-2 -0.93,-0.92 -1.02,-0.43 -1.37,0.53 -0.34,-0.13 -2.57,0.24 -0.86,0.42 -1.23,-0.69 -0.08,-0.9 -0.73,-0.22 -0.12,-0.45 -0.82,-0.68 -0.88,-1.2 0.62,-0.88 0.7,-0.45 0.7,-1.95 -0.61,-0.27 -0.73,-1.97 0.26,-0.59 -0.9,-0.44 -1.07,0.08 -0.27,-0.54 0,0 0.81,-1.03 0.3,-1.23 0.98,-0.39 0.43,-1.14 -0.78,-1.33 0.07,-1.04 1.66,-2.08 0.31,-0.71 0.32,-0.73 0.5,-0.32 -0.1,-0.62 0.25,-0.23 0.57,-0.08 0.35,-0.35 0.99,0.48 0.46,1.15 0.64,0.28 0.32,0.68 0.76,0.31 1.92,1.84 -0.11,0.55 0.58,0.38 0.1,0.34 0.93,0 2.34,2.8 0.59,1.27 0.78,0.6 0.52,0.75 0.71,0.42 0.73,1.11 0.35,0.13 0.41,-0.25 1.22,1.34 0.63,0.3 0.32,0.58 0.8,0.29 0.33,0.62 0.4,0.25 0.87,0.01 0.64,-0.69 0.66,0.11 0.39,-0.22 -0.31,-0.97 0.21,-0.31 0.04,-0.85 0.19,-1.14 0.89,-3.54 0.02,-0.62 -0.55,-0.32 -0.01,-0.86 0.51,-0.51 0.42,-2.18 0.39,-0.66 0.969999,-1.22 1.22,-0.81 0.31,-1.01 1.04,-1.27 0.67,-0.07 0.32,0.39 0.31,-0.01 0.74,-0.26 0.55,-0.58 0.54,0.06 0.94,-0.51 1.23,-0.12 1.31,-0.77 z" />
  <path d="m 166.03847,0.9232294 0.91,0.8 0.14,1.33 0.97,1.47 0.76,0.15 1.28,1.48 0.78,-0.26 0.25,-0.44 0.45,0.02 0.43,0.52 0.29,0.91 0.79,0.89 0.75,0.1 -0.09,0.72 0.64,0.74 -0.05,0.6899996 0.51,0.78 0.01,0.37 1.09,0.51 1.08,-0.12 0.64,0.45 0.13,0.63 0.63,0.67 0.67,0.22 0.12,0.46 0.35,0.26 -1.43,1.53 0,0 -0.7,0.51 -1.19,0.1 -0.57,1.37 0.12,0.47 -0.62,0.87 -0.24,1.02 -0.45,0.5 -0.33,1.33 -1.06,0.12 -0.95,0.47 -1.65,-0.12 -0.27,0.35 -0.69,0.22 -1.27,0.07 -0.71,0.69 -0.04,0.34 0.3,0.41 -0.3,0.88 0.21,0.46 -0.3,0.24 -1.16,0.21 -0.65,0.95 -0.64,0.12 -0.3,0.79 0.04,1.39 -1.82,-0.12 0.07,0.86 0.57,0.31 1.27,0.21 0.54,0.73 1.25,0.64 0.17,0.61 0.79,-0.05 1.33,0.37 0.69,0.95 1.11,0.51 0.21,0.41 0.9,0.28 0.46,0.79 1.12,0.23 0.73,2.63 0.63,0.69 -0.54,0.39 -0.14,0.66 0.48,1.02 0.14,1.31 0,0 -0.61,0.88 -0.54,-0.12 -1.33,0.73 -0.22,-0.29 -0.22,0.44 0,-0.29 -0.29,0.05 0.02,0.26 -0.41,-0.27 -1.01,-0.16 -0.78,-1.02 -0.52,0.16 -1.21,-0.67 -1.63,-0.05 -0.28,0.18 -0.09,0.68 -0.27,0.13 -0.06,1.03 -0.29,-0.22 0.01,-0.28 -1.12,-0.02 -0.18,-0.19 0.09,-0.48 -0.32,-0.52 0.1,-0.22 -0.59,-0.51 -1.13,-0.33 -0.36,0.26 -0.12,-0.41 -0.58,-0.44 -0.58,0.16 -0.42,-0.26 -0.31,-0.66 -1.64,-0.32 -0.2,-0.31 -1.14,-0.4 -0.47,0.46 -0.2,0.89 -0.26,0.14 0.48,0.31 0.02,0.44 0.4,0.32 0.62,1.59 -0.38,0.19 -0.48,-0.39 -0.2,0.69 -0.65,0.47 0.33,0.89 -1,0.78 0.33,0.43 0.38,1.74 -1.05,2.53 0.26,0.41 -0.05,1.04 0.32,0.51 -1.59,0.94 0.48,0.55 0.25,0.83 -0.5,1.02 -0.74,0.04 -0.18,0.46 -0.04,0.28 0.72,1.17 -0.18,0.42 -1.87,-0.19 -0.32,0.26 0.55,0.94 0.48,0.31 -0.05,0.98 -0.77,0.08 0.17,1.24 -0.94,0.35 -0.77,0.84 -0.26,0.03 -0.3,-0.97 0.11,-0.79 -0.56,-0.18 -0.14,-0.7 -0.53,-0.53 -0.72,0.26 -0.97,-0.08 -0.63,-0.69 -1.05,-0.03 -0.57,-0.95 -0.39,0.08 -0.14,1.07 -0.29,0.38 0.29,0.43 0.72,0.18 0.36,0.49 -0.13,0.4 0.33,0.32 -0.49,0.11 -0.35,0.76 -0.51,-0.06 -0.21,0.22 0.77,0.77 0.09,0.41 0.45,0.29 0.05,0.33 -0.35,0.47 0.13,0.88 -0.17,0.27 -0.28,-0.15 -0.11,0.15 -0.5,1.58 -0.75,-0.17 -0.2,-0.85 -0.57,-0.07 -0.19,0.31 -0.19,-0.09 -0.42,0.75 0,0 0,0 0,0 0,0 0,0 -0.98,0.43 -0.67,-0.47 0.09,0.33 -0.31,0.4 -0.69,0.15 -0.85,-0.14 -0.2,0.09 0.01,0.29 -0.88,-0.1 -0.35,-0.35 -0.05,-0.65 -0.7,0 -0.39,-0.69 -0.51,-0.11 -0.2,-0.84 0.48,-0.6 0,-0.53 -0.39,-1.25 -0.93,-0.37 -0.97,0.14 -0.47,-0.19 -0.34,-0.66 -0.51,0.18 -0.51,-0.38 -0.44,0.19 -0.65,-0.56 -0.63,-0.01 -0.18,-0.24 -0.39,0.04 -1.08,1.5 0.08,0.8 0,0 -0.38,-0.12 -0.24,0.39 -0.61,0.14 -0.56,-0.2 -0.45,-1.55 0.13,-0.34 0.7,-0.25 1.03,-1.06 -0.01,-0.72 -0.71,-0.87 0.83,-0.95 -0.59,-0.36 -0.8,0.07 -0.35,-0.36 0.34,-0.7 -0.34,-0.52 -2.1,-1.26 -0.51,0.03 -0.4,-0.87 -1.15,-0.24 -0.77,-1.14 -0.27,-0.82 0.84,-0.61 0.46,-0.84 -1.56,-1.03 -0.52,-1.04 -0.99,-0.42 0.39,-0.77 0.21,-1.71 0.87,-0.1 0.68,0.3 0.47,-0.19 -0.13,-2.19 -1.37,-0.39 -0.72,-0.61 -0.65,-1.25 -0.02,-0.64 -0.61,-0.85 -1.89,0.35 -1.31,-0.87 0.3,-1.15 0,0 0.79,0.97 1.13,-0.1 0.48,-0.6 0.57,0.15 0.59,-1.39 0.76,-0.66 2.43,-1.08 1.45,-1.6 0.95,-0.57 0.59,-1.26 0.44,-0.44 0.49,-0.71 1.61,-0.77 0.64,0.02 0.35,0.33 0.38,1.02 -0.33,0.28 0.06,0.39 0.9,-0.14 0.38,-0.63 -0.3,-0.33 0.31,-0.59 0.38,0.59 1.31,0.15 0.86,0.88 1.48,-0.48 1.17,0.34 0.44,-0.16 0.19,-0.48 -0.55,-1.06 0.67,-0.48 0.96,0.02 1.1,-2.58 0.72,-0.06 1.55,-1 1,0.09 1.12,-1.43 -0.58,-0.94 -0.65,-0.51 -0.46,-0.52 0.02,-0.93 -0.06,-1.5 -0.43,-0.63 -0.33,-1.22 -0.09,-0.74 -0.31,-0.63 -0.24,-2.16 -0.32,-0.41 1.74,-0.35 0.56,0.28 0.73,-0.15 0.35,0.17 0.65,0.12 0.47,-0.98 -0.06,-1.15 0.53,-0.59 1.33,-0.53 1.72,0.71 0.37,-0.57 0.14,-1.26 1.34,-0.33 0.14,0.39 0.5,-0.01 0.39,-0.8 1.09,-0.17 0.96,-0.8599996 0.47,-0.77 0.75,-0.41 0.91,-0.71 0.72,0.27 0.28,0.52 -0.16,0.37 0.63,0.15 0.69,-0.43 0.4,-0.21 1.14,-0.5 0.59,-0.88 0.26,-0.32 0.47,0.08 0.88,0.4 0.12,0.4 0.59,0.32 0.68,-0.2 0.22,-0.28 0.28,-0.58 0.81,-0.69 -0.02,-0.6 0.4,-0.28 -0.39,-1.02 0.16,-0.32 0.27,-0.3 0.75,0.19 0.54,-0.16 0.21,-0.86 0.56,-0.59 -0.04,-0.56 -0.46,0.06 -0.15,-0.31 0.7,-0.2 0.57,0.24 0.7,-0.61 z" />
  </g>
  <path id="VN-SG" fill="#D98A2B" d="m 246.04847,700.96323 -1,0.35 0.32,0.39 -0.19,1.84 -0.66,0.73 -0.36,0.12 -0.22,-0.16 -0.17,-0.54 -1.5,-1.25 -0.52,0.49 0,0 -1.37,-1.62 -1.36,-2.29 0,0 0.7,-1.49 -0.34,-1.9 0.19,-0.76 -0.53,-0.06 0.2,-0.27 -0.14,-0.21 -0.42,0.33 -0.44,-0.86 -0.07,-0.5 0.25,-0.3 0.47,0.09 -0.27,-0.33 0.22,-0.35 -0.14,-0.28 0.22,-0.03 -0.13,-0.34 -0.45,-0.56 -1.11,-0.42 -0.51,0.28 -0.28,-0.42 -0.28,0.56 -0.66,0.33 0,0 -0.09,-0.03 0,0 -0.48,-0.17 -0.17,0.55 -0.36,-0.09 -0.23,0.44 -0.41,0.09 -0.22,-0.09 -0.03,-0.81 -0.42,0.04 0.17,-0.34 -0.97,-0.61 -0.29,0.45 -1.06,-0.27 -0.15,0.35 -0.4,-0.4 -0.62,0.36 -0.07,-0.39 -0.36,-0.04 0.22,-0.53 -0.14,-0.92 -0.88,-0.14 -0.35,-1.08 0.13,-0.48 -0.49,-0.32 -0.58,0.34 -0.4,-0.5 -0.74,-0.17 -1.23,-1.4 2.1,-1.7 1.53,-5.91 -4.14,-2.14 -2.16,-1.67 -2.03,0.21 -0.85,-1.16 0,0 0.29,-0.25 1.35,-0.11 1.33,-0.52 -0.28,-0.72 0.24,-0.55 0.41,-0.15 0.19,-0.67 -0.17,-0.73 0.23,-0.21 0.03,-1.36 0.21,0 0.02,-0.35 0.57,-0.83 0.28,-1.08 0.2,-0.04 0,0 0.3,-0.37 0,0 0.03,-0.48 -0.3,0.06 0.01,-0.33 0.6,-0.13 0.39,0.27 -0.21,0.38 0.26,0.24 1.85,0.02 0.45,0.89 0.57,0.25 -0.03,0.78 -0.53,0.3 0.32,0.53 0.59,-0.02 -0.52,0.89 0.48,0.77 0.96,0.7 0.8,0.04 0.31,-0.5 0.74,0.96 0.65,-0.47 0.21,0.3 -0.42,0.55 0.13,0.7 1.13,0.37 -0.18,1.01 0.47,0.45 0.64,0.2 0.55,-0.17 0.15,2.5 0.83,0.61 0.73,-0.13 0.28,0.23 0.44,1.17 -0.24,0.89 0.58,0.66 0.64,0.12 0.12,-0.37 0.42,0.05 -0.12,-0.24 -0.47,-0.06 0.29,-0.19 -0.02,-0.35 -0.23,-0.1 0.24,-0.35 0.49,0.31 0.33,-0.04 -0.07,0.29 0.35,-0.04 -0.2,0.31 0.82,0.13 0.09,0.16 -0.31,0.17 0.3,0.43 0.5,-0.17 -0.09,-0.78 0.44,-0.64 0.66,0.67 -0.02,0.68 0.41,0.05 0.02,-0.25 1.04,-0.14 0.76,-0.67 0.15,-0.42 0.73,-0.16 0,0 0.19,0.75 0.38,0.44 -0.22,0.72 0.39,0.93 1.19,1.31 0.23,0.7 -0.89,0.91 0.49,0.89 -0.16,0.36 -0.28,0.04 -0.64,-0.52 -0.42,-0.03 -1.05,0.82 0.02,-0.93 0,0 -0.31,-0.19 0,0 -0.66,0.51 -0.28,0.57 -1.49,0.72 -1.03,1.3 0.08,1.28 1.34,1.25 0,0 0.17,-0.12 1.26,0.82 0.95,1.58 0.58,0.03 0.15,-0.48 1.02,-0.14 0.7,-0.47 0.52,0.1 1.23,1.25 0.28,0.8 0.54,-0.06 0.62,0.42 0.44,0.18 0.97,0.17 1.15,0.73 0.1,-0.51 0.1,-0.27 0.18,-0.41 0.88,-0.29 0,0 0.49,0.33 0.45,0.95 -0.91,1.58 0.23,0.51 0.67,0.25 -0.61,0.72 -0.48,-0.28 0.03,0.35 0.19,0.28 -0.26,0.42 -0.68,-0.09 -0.69,0.57 -0.13,0.41 0.16,0.58 -0.39,0.45 -0.2,0.76 -1.16,-0.53 0.55,-0.5 -0.35,-0.22 -0.82,0.67 0.23,1.61 0.28,0.38 0.38,0.42 1.36,0.69 -0.26,0.42 -2.93,1.26 -0.85,0.26 -1.13,0.02 0.23,-0.61 -0.94,-2.1 0.77,-1.02 0.25,-1.04 -0.88,-0.28 0.21,0.63 z" />
</svg>
