<svg xmlns="http://www.w3.org/2000/svg" viewBox="0 0 1200 900" width="1200" height="900">
  <rect width="1200" height="900" fill="#16231C"/>
  <g stroke="#D98A2B" stroke-width="2" fill="none" opacity="0.55">
    <path d="M430 560 L430 300 Q430 260 470 260 L640 260 Q680 260 680 300 L680 560"/>
    <path d="M430 560 L370 560 Q340 560 340 530 L340 430 Q340 410 360 410 L430 410"/>
    <path d="M680 560 L740 560 Q770 560 770 530 L770 430 Q770 410 750 410 L680 410"/>
    <rect x="400" y="560" width="310" height="70" rx="10"/>
    <line x1="420" y1="630" x2="420" y2="680"/>
    <line x1="690" y1="630" x2="690" y2="680"/>
    <line x1="370" y1="560" x2="370" y2="610"/>
    <line x1="740" y1="560" x2="740" y2="610"/>
  </g>
  <g stroke="#5C6E4F" stroke-width="1.5" fill="none" opacity="0.35">
    <line x1="120" y1="780" x2="1080" y2="780"/>
    <line x1="200" y1="780" x2="200" y2="120"/>
    <line x1="1000" y1="780" x2="1000" y2="120"/>
  </g>
</svg>
